size=       0kB time=00:00:00.02 bitrate= 162.7kbits/s speed=N/A    size=    1536kB time=00:00:00.50 bitrate=24966.1kbits/s speed=   1x    size=    1536kB time=00:00:01.03 bitrate=12192.7kbits/s speed=1.02x    size=    1536kB time=00:00:01.51 bitrate=8322.0kbits/s speed=   1x    size=    1536kB time=00:00:02.04 bitrate=6168.1kbits/s speed=1.01x    size=    1536kB time=00:00:02.54 bitrate=4946.1kbits/s speed=1.01x    size=    1536kB time=00:00:03.02 bitrate=4161.0kbits/s speed=   1x    size=    1536kB time=00:00:03.52 bitrate=3566.6kbits/s speed=   1x    size=    1536kB time=00:00:04.03 bitrate=3120.8kbits/s speed=   1x    size=    1536kB time=00:00:04.53 bitrate=2774.0kbits/s speed=   1x    size=    1536kB time=00:00:05.06 bitrate=2484.8kbits/s speed=   1x    size=    1536kB time=00:00:05.54 bitrate=2269.6kbits/s speed=   1x    size=    1536kB time=00:00:06.07 bitrate=2072.3kbits/s speed=   1x    size=    1536kB time=00:00:06.57 bitrate=1913.5kbits/s speed=   1x    size=    1536kB time=00:00:07.08 bitrate=1777.2kbits/s speed=   1x    size=    1536kB time=00:00:07.58 bitrate=1659.1kbits/s speed=   1x    size=    1536kB time=00:00:08.08 bitrate=1555.8kbits/s speed=   1x    size=    1536kB time=00:00:08.59 bitrate=1464.5kbits/s speed=   1x    size=    1536kB time=00:00:09.09 bitrate=1383.3kbits/s speed=   1x    size=    1536kB time=00:00:09.60 bitrate=1310.7kbits/s speed=   1x    size=    1536kB time=00:00:10.10 bitrate=1245.3kbits/s speed=   1x    size=    1536kB time=00:00:10.60 bitrate=1186.2kbits/s speed=   1x    size=    1536kB time=00:00:11.11 bitrate=1132.4kbits/s speed=   1x    size=    1536kB time=00:00:11.61 bitrate=1083.2kbits/s speed=   1x    size=    1536kB time=00:00:12.09 bitrate=1040.3kbits/s speed=   1x    size=    1536kB time=00:00:12.60 bitrate= 998.6kbits/s speed=   1x    size=    1536kB time=00:00:13.10 bitrate= 960.2kbits/s speed=   1x    size=    1536kB time=00:00:13.63 bitrate= 923.0kbits/s speed=   1x    size=    1536kB time=00:00:14.13 bitrate= 890.1kbits/s speed=   1x    size=    1536kB time=00:00:14.64 bitrate= 859.5kbits/s speed=   1x    size=    1536kB time=00:00:15.14 bitrate= 830.9kbits/s speed=   1x    size=    1536kB time=00:00:15.64 bitrate= 804.1kbits/s speed=   1x    size=    1536kB time=00:00:16.15 bitrate= 779.0kbits/s speed=   1x    size=     256kB time=00:00:16.65 bitrate= 125.9kbits/s speed=   1x    size=     256kB time=00:00:17.16 bitrate= 122.2kbits/s speed=   1x    size=     256kB time=00:00:17.66 bitrate= 118.7kbits/s speed=   1x    size=     256kB time=00:00:18.16 bitrate= 115.4kbits/s speed=   1x    size=     256kB time=00:00:18.67 bitrate= 112.3kbits/s speed=   1x    size=     256kB time=00:00:19.15 bitrate= 109.5kbits/s speed=0.999x    size=     256kB time=00:00:19.68 bitrate= 106.6kbits/s speed=   1x    size=     256kB time=00:00:19.92 bitrate= 105.3kbits/s speed=0.987x    size=     256kB time=00:00:20.68 bitrate= 101.4kbits/s speed=   1x    size=     256kB time=00:00:20.95 bitrate= 100.1kbits/s speed=0.988x    size=     256kB time=00:00:21.72 bitrate=  96.6kbits/s speed=   1x    size=     256kB time=00:00:21.93 bitrate=  95.6kbits/s speed=0.986x    size=     256kB time=00:00:22.77 bitrate=  92.1kbits/s speed=   1x    size=     256kB time=00:00:22.94 bitrate=  91.4kbits/s speed=0.986x    size=     256kB time=00:00:23.78 bitrate=  88.2kbits/s speed=   1x    size=     256kB time=00:00:23.95 bitrate=  87.6kbits/s speed=0.985x    size=     256kB time=00:00:24.81 bitrate=  84.5kbits/s speed=   1x    size=     256kB time=00:00:24.93 bitrate=  84.1kbits/s speed=0.984x    size=     256kB time=00:00:25.84 bitrate=  81.1kbits/s speed=   1x    size=     256kB time=00:00:25.94 bitrate=  80.8kbits/s speed=0.984x    size=     256kB time=00:00:26.88 bitrate=  78.0kbits/s speed=   1x    size=     256kB time=00:00:26.95 bitrate=  77.8kbits/s speed=0.983x    size=     256kB time=00:00:27.91 bitrate=  75.1kbits/s speed=   1x    size=     256kB time=00:00:27.96 bitrate=  75.0kbits/s speed=0.983x    size=     256kB time=00:00:28.94 bitrate=  72.5kbits/s speed=0.982x    size=     256kB time=00:00:30.00 bitrate=  69.9kbits/s speed=   1x    size=     256kB time=00:00:30.50 bitrate=  68.8kbits/s speed=   1x    size=     256kB time=00:00:31.00 bitrate=  67.6kbits/s speed=   1x    size=     256kB time=00:00:31.51 bitrate=  66.6kbits/s speed=   1x    size=     256kB time=00:00:32.01 bitrate=  65.5kbits/s speed=   1x    size=     256kB time=00:00:32.52 bitrate=  64.5kbits/s speed=   1x    size=     512kB time=00:00:33.02 bitrate= 127.0kbits/s speed=   1x    size=     512kB time=00:00:33.52 bitrate= 125.1kbits/s speed=   1x    size=     512kB time=00:00:34.03 bitrate= 123.2kbits/s speed=   1x    size=     512kB time=00:00:34.51 bitrate= 121.5kbits/s speed=   1x    size=     512kB time=00:00:35.04 bitrate= 119.7kbits/s speed=   1x    size=     512kB time=00:00:35.54 bitrate= 118.0kbits/s speed=   1x    size=     512kB time=00:00:36.04 bitrate= 116.4kbits/s speed=   1x    size=     512kB time=00:00:36.55 bitrate= 114.7kbits/s speed=   1x    size=     512kB time=00:00:37.05 bitrate= 113.2kbits/s speed=   1x    size=     512kB time=00:00:37.56 bitrate= 111.7kbits/s speed=   1x    size=     512kB time=00:00:38.06 bitrate= 110.2kbits/s speed=   1x    size=     512kB time=00:00:38.56 bitrate= 108.8kbits/s speed=   1x    size=     512kB time=00:00:39.07 bitrate= 107.3kbits/s speed=   1x    size=     512kB time=00:00:39.57 bitrate= 106.0kbits/s speed=   1x    size=     512kB time=00:00:40.08 bitrate= 104.6kbits/s speed=   1x    size=     512kB time=00:00:40.58 bitrate= 103.3kbits/s speed=   1x    size=     512kB time=00:00:41.08 bitrate= 102.1kbits/s speed=   1x    size=     512kB time=00:00:41.59 bitrate= 100.8kbits/s speed=   1x    size=     512kB time=00:00:42.09 bitrate=  99.6kbits/s speed=   1x    size=     512kB time=00:00:42.60 bitrate=  98.5kbits/s speed=   1x    size=     512kB time=00:00:43.10 bitrate=  97.3kbits/s speed=   1x    size=     512kB time=00:00:43.60 bitrate=  96.2kbits/s speed=   1x    size=     512kB time=00:00:44.11 bitrate=  95.1kbits/s speed=   1x    size=     512kB time=00:00:44.61 bitrate=  94.0kbits/s speed=   1x    size=     512kB time=00:00:45.12 bitrate=  93.0kbits/s speed=   1x    size=     512kB time=00:00:45.62 bitrate=  91.9kbits/s speed=   1x    size=     512kB time=00:00:46.12 bitrate=  90.9kbits/s speed=   1x    size=     512kB time=00:00:46.63 bitrate=  89.9kbits/s speed=   1x    size=     512kB time=00:00:47.13 bitrate=  89.0kbits/s speed=   1x    size=     512kB time=00:00:47.64 bitrate=  88.0kbits/s speed=   1x    size=     512kB time=00:00:48.14 bitrate=  87.1kbits/s speed=   1x    size=     512kB time=00:00:48.64 bitrate=  86.2kbits/s speed=   1x    size=     768kB time=00:00:49.15 bitrate= 128.0kbits/s speed=   1x    size=     768kB time=00:00:49.63 bitrate= 126.8kbits/s speed=   1x    size=     768kB time=00:00:50.06 bitrate= 125.7kbits/s speed=0.999x    size=     768kB time=00:00:50.64 bitrate= 124.2kbits/s speed=   1x    size=     768kB time=00:00:51.00 bitrate= 123.4kbits/s speed=0.997x    size=     768kB time=00:00:51.67 bitrate= 121.8kbits/s speed=   1x    size=     768kB time=00:00:52.03 bitrate= 120.9kbits/s speed=0.997x    size=     768kB time=00:00:52.70 bitrate= 119.4kbits/s speed=   1x    size=     768kB time=00:00:53.01 bitrate= 118.7kbits/s speed=0.996x    size=     768kB time=00:00:53.76 bitrate= 117.0kbits/s speed=   1x    size=     768kB time=00:00:54.02 bitrate= 116.5kbits/s speed=0.996x    size=     768kB time=00:00:54.76 bitrate= 114.9kbits/s speed=   1x    size=     768kB time=00:00:55.03 bitrate= 114.3kbits/s speed=0.995x    size=     768kB time=00:00:55.82 bitrate= 112.7kbits/s speed=   1x    size=     768kB time=00:00:56.01 bitrate= 112.3kbits/s speed=0.995x    size=     768kB time=00:00:56.85 bitrate= 110.7kbits/s speed=   1x    size=     768kB time=00:00:57.02 bitrate= 110.3kbits/s speed=0.994x    size=     768kB time=00:00:57.88 bitrate= 108.7kbits/s speed=   1x    size=     768kB time=00:00:58.03 bitrate= 108.4kbits/s speed=0.994x    size=     768kB time=00:00:58.92 bitrate= 106.8kbits/s speed=   1x    size=     768kB time=00:00:59.04 bitrate= 106.6kbits/s speed=0.994x    size=     768kB time=00:00:59.95 bitrate= 104.9kbits/s speed=   1x    size=     768kB time=00:01:00.02 bitrate= 104.8kbits/s speed=0.993x    size=     768kB time=00:01:00.98 bitrate= 103.2kbits/s speed=   1x    size=     768kB time=00:01:01.03 bitrate= 103.1kbits/s speed=0.993x    size=     768kB time=00:01:02.01 bitrate= 101.4kbits/s speed=   1x    size=     768kB time=00:01:02.04 bitrate= 101.4kbits/s speed=0.992x    size=     768kB time=00:01:03.02 bitrate=  99.8kbits/s speed=   1x    size=     768kB time=00:01:03.52 bitrate=  99.0kbits/s speed=   1x    size=     768kB time=00:01:04.03 bitrate=  98.3kbits/s speed=   1x    size=     768kB time=00:01:04.56 bitrate=  97.5kbits/s speed=   1x    size=     768kB time=00:01:05.06 bitrate=  96.7kbits/s speed=   1x    size=    1024kB time=00:01:05.56 bitrate= 127.9kbits/s speed=   1x    size=    1030kB time=00:01:05.92 bitrate= 128.0kbits/s speed= 0.3x    
                                                                                                                                                                                                                                                                                                                                                                                                                                                                                                                                                                                                                                                                                                                                                                               size=    1024kB time=00:00:41.61 bitrate= 201.6kbits/s speed=0.181x    size=    1024kB time=00:00:41.61 bitrate= 201.6kbits/s speed=0.18x    size=    1024kB time=00:00:41.61 bitrate= 201.6kbits/s speed=0.18x    size=    1024kB time=00:00:41.61 bitrate= 201.6kbits/s speed=0.18x    size=    1024kB time=00:00:41.61 bitrate= 201.6kbits/s speed=0.179x    size=    1024kB time=00:00:41.61 bitrate= 201.6kbits/s speed=0.179x    size=    1024kB time=00:00:41.61 bitrate= 201.6kbits/s speed=0.178x    size=    1024kB time=00:00:41.61 bitrate= 201.6kbits/s speed=0.178x    size=    1024kB time=00:00:41.61 bitrate= 201.6kbits/s speed=0.178x    size=    1024kB time=00:00:41.61 bitrate= 201.6kbits/s speed=0.177x    size=    1024kB time=00:00:41.61 bitrate= 201.6kbits/s speed=0.177x    size=    1024kB time=00:00:41.61 bitrate= 201.6kbits/s speed=0.177x    size=    1024kB time=00:00:41.61 bitrate= 201.6kbits/s speed=0.176x    size=    1024kB time=00:00:41.61 bitrate= 201.6kbits/s speed=0.176x    size=    1024kB time=00:00:41.61 bitrate= 201.6kbits/s speed=0.175x    size=    1024kB time=00:00:41.61 bitrate= 201.6kbits/s speed=0.175x    size=    1024kB time=00:00:41.61 bitrate= 201.6kbits/s speed=0.175x    size=    1280kB time=00:00:41.61 bitrate= 252.0kbits/s speed=0.174x    size=    1280kB time=00:00:41.61 bitrate= 252.0kbits/s speed=0.174x    size=    1280kB time=00:00:41.61 bitrate= 252.0kbits/s speed=0.174x    size=    1280kB time=00:00:41.61 bitrate= 252.0kbits/s speed=0.173x    size=    1280kB time=00:00:41.61 bitrate= 252.0kbits/s speed=0.173x    size=    1280kB time=00:00:41.61 bitrate= 252.0kbits/s speed=0.172x    size=    1280kB time=00:00:41.61 bitrate= 252.0kbits/s speed=0.172x    size=    1280kB time=00:00:41.61 bitrate= 252.0kbits/s speed=0.172x    size=    1280kB time=00:00:41.61 bitrate= 252.0kbits/s speed=0.171x    size=    1280kB time=00:00:41.61 bitrate= 252.0kbits/s speed=0.171x    size=    1280kB time=00:00:41.61 bitrate= 252.0kbits/s speed=0.17x    size=    1280kB time=00:00:41.61 bitrate= 252.0kbits/s speed=0.17x    size=    1280kB time=00:00:41.61 bitrate= 252.0kbits/s speed=0.17x    size=    1280kB time=00:00:41.61 bitrate= 252.0kbits/s speed=0.169x    size=    1280kB time=00:00:41.61 bitrate= 252.0kbits/s speed=0.169x    size=    1280kB time=00:00:41.61 bitrate= 252.0kbits/s speed=0.169x    size=    1280kB time=00:00:41.61 bitrate= 252.0kbits/s speed=0.168x    size=    1280kB time=00:00:41.61 bitrate= 252.0kbits/s speed=0.168x    size=    1280kB time=00:00:41.61 bitrate= 252.0kbits/s speed=0.168x    size=    1280kB time=00:00:41.61 bitrate= 252.0kbits/s speed=0.167x    size=    1280kB time=00:00:41.61 bitrate= 252.0kbits/s speed=0.167x    size=    1280kB time=00:00:41.61 bitrate= 252.0kbits/s speed=0.167x    size=    1280kB time=00:00:41.61 bitrate= 252.0kbits/s speed=0.166x    size=    1280kB time=00:00:41.61 bitrate= 252.0kbits/s speed=0.166x    size=    1280kB time=00:00:41.61 bitrate= 252.0kbits/s speed=0.166x    size=    1280kB time=00:00:41.61 bitrate= 252.0kbits/s speed=0.165x    size=    1280kB time=00:00:41.61 bitrate= 252.0kbits/s speed=0.165x    size=    1280kB time=00:00:41.61 bitrate= 252.0kbits/s speed=0.165x    size=    1280kB time=00:00:41.61 bitrate= 252.0kbits/s speed=0.164x    size=    1280kB time=00:00:41.61 bitrate= 252.0kbits/s speed=0.164x    size=    1280kB time=00:00:41.61 bitrate= 252.0kbits/s speed=0.164x    size=    1280kB time=00:00:41.61 bitrate= 252.0kbits/s speed=0.163x    size=    1536kB time=00:00:41.61 bitrate= 302.4kbits/s speed=0.162x    size=    1536kB time=00:00:41.61 bitrate= 302.4kbits/s speed=0.162x    size=    1536kB time=00:00:41.61 bitrate= 302.4kbits/s speed=0.161x    size=    1536kB time=00:00:41.61 bitrate= 302.4kbits/s speed=0.16x    size=    1536kB time=00:00:41.61 bitrate= 302.4kbits/s speed=0.16x    size=    1536kB time=00:00:41.61 bitrate= 302.4kbits/s speed=0.16x    size=    1536kB time=00:00:41.61 bitrate= 302.4kbits/s speed=0.159x    size=    1536kB time=00:00:41.61 bitrate= 302.4kbits/s speed=0.159x    size=    1536kB time=00:00:41.61 bitrate= 302.4kbits/s speed=0.159x    size=    1536kB time=00:00:41.61 bitrate= 302.4kbits/s speed=0.158x    size=    1536kB time=00:00:41.61 bitrate= 302.4kbits/s speed=0.158x    size=    1536kB time=00:00:41.61 bitrate= 302.4kbits/s speed=0.158x    size=    1536kB time=00:00:41.61 bitrate= 302.4kbits/s speed=0.158x    size=    1536kB time=00:00:41.61 bitrate= 302.4kbits/s speed=0.157x    size=    1536kB time=00:00:41.61 bitrate= 302.4kbits/s speed=0.157x    size=    1536kB time=00:00:41.61 bitrate= 302.4kbits/s speed=0.157x    size=    1536kB time=00:00:41.61 bitrate= 302.4kbits/s speed=0.156x    size=    1536kB time=00:00:41.61 bitrate= 302.4kbits/s speed=0.156x    size=    1536kB time=00:00:41.61 bitrate= 302.4kbits/s speed=0.156x    size=    1536kB time=00:00:41.61 bitrate= 302.4kbits/s speed=0.155x    size=    1536kB time=00:00:41.61 bitrate= 302.4kbits/s speed=0.155x    size=    1536kB time=00:00:41.61 bitrate= 302.4kbits/s speed=0.155x    size=    1536kB time=00:00:41.61 bitrate= 302.4kbits/s speed=0.154x    size=    1536kB time=00:00:41.61 bitrate= 302.4kbits/s speed=0.154x    size=    1536kB time=00:00:41.61 bitrate= 302.4kbits/s speed=0.154x    size=    1536kB time=00:00:41.61 bitrate= 302.4kbits/s speed=0.154x    size=    1792kB time=00:00:41.61 bitrate= 352.8kbits/s speed=0.153x    size=    1792kB time=00:00:41.61 bitrate= 352.8kbits/s speed=0.153x    size=    1792kB time=00:00:41.61 bitrate= 352.8kbits/s speed=0.153x    size=    1792kB time=00:00:41.61 bitrate= 352.8kbits/s speed=0.152x    size=    1792kB time=00:00:41.61 bitrate= 352.8kbits/s speed=0.152x    size=    1792kB time=00:00:41.61 bitrate= 352.8kbits/s speed=0.152x    size=    1792kB time=00:00:41.61 bitrate= 352.8kbits/s speed=0.152x    size=    1792kB time=00:00:41.61 bitrate= 352.8kbits/s speed=0.151x    size=    1792kB time=00:00:41.61 bitrate= 352.8kbits/s speed=0.151x    size=    1792kB time=00:00:41.61 bitrate= 352.8kbits/s speed=0.151x    size=    1792kB time=00:00:41.61 bitrate= 352.8kbits/s speed=0.15x    size=    1792kB time=00:00:41.61 bitrate= 352.8kbits/s speed=0.15x    size=    1792kB time=00:00:41.61 bitrate= 352.8kbits/s speed=0.15x    size=    1792kB time=00:00:41.61 bitrate= 352.8kbits/s speed=0.15x    size=    1792kB time=00:00:41.61 bitrate= 352.8kbits/s speed=0.149x    size=    1792kB time=00:00:41.61 bitrate= 352.8kbits/s speed=0.149x    size=    1792kB time=00:00:41.61 bitrate= 352.8kbits/s speed=0.149x    size=    1792kB time=00:00:41.61 bitrate= 352.8kbits/s speed=0.148x    size=    1792kB time=00:00:41.61 bitrate= 352.8kbits/s speed=0.148x    size=    1792kB time=00:00:41.61 bitrate= 352.8kbits/s speed=0.148x    size=    1792kB time=00:00:41.61 bitrate= 352.8kbits/s speed=0.148x    size=    1792kB time=00:00:41.61 bitrate= 352.8kbits/s speed=0.147x    size=    1792kB time=00:00:41.61 bitrate= 352.8kbits/s speed=0.147x    size=    1792kB time=00:00:41.61 bitrate= 352.8kbits/s speed=0.147x    size=    1792kB time=00:00:41.61 bitrate= 352.8kbits/s speed=0.147x    size=    1792kB time=00:00:41.61 bitrate= 352.8kbits/s speed=0.146x    size=    1792kB time=00:00:41.61 bitrate= 352.8kbits/s speed=0.146x    size=    1792kB time=00:00:41.61 bitrate= 352.8kbits/s speed=0.146x    size=    1792kB time=00:00:41.61 bitrate= 352.8kbits/s speed=0.146x    size=    1792kB time=00:00:41.61 bitrate= 352.8kbits/s speed=0.145x    size=    1792kB time=00:00:41.61 bitrate= 352.8kbits/s speed=0.145x    size=    1792kB time=00:00:41.61 bitrate= 352.8kbits/s speed=0.145x    size=    2048kB time=00:00:41.61 bitrate= 403.1kbits/s speed=0.145x    size=    2048kB time=00:00:41.61 bitrate= 403.1kbits/s speed=0.144x    size=    2048kB time=00:00:41.61 bitrate= 403.1kbits/s speed=0.144x    size=    2048kB time=00:00:41.61 bitrate= 403.1kbits/s speed=0.144x    size=    2048kB time=00:00:41.61 bitrate= 403.1kbits/s speed=0.143x    size=    2048kB time=00:00:41.61 bitrate= 403.1kbits/s speed=0.143x    size=    2048kB time=00:00:41.61 bitrate= 403.1kbits/s speed=0.142x    size=    2048kB time=00:00:41.61 bitrate= 403.1kbits/s speed=0.142x    size=    2048kB time=00:00:41.61 bitrate= 403.1kbits/s speed=0.142x    size=    2048kB time=00:00:41.61 bitrate= 403.1kbits/s speed=0.141x    size=    2048kB time=00:00:41.61 bitrate= 403.1kbits/s speed=0.141x    size=    2048kB time=00:00:41.61 bitrate= 403.1kbits/s speed=0.141x    size=    2048kB time=00:00:41.61 bitrate= 403.1kbits/s speed=0.141x    size=    2176kB time=00:00:41.61 bitrate= 428.3kbits/s speed=0.0924x    
